<svg width="2058" height="1573" xmlns="http://www.w3.org/2000/svg" xmlns:xlink="http://www.w3.org/1999/xlink" xml:space="preserve" overflow="hidden"><defs><clipPath id="clip0"><rect x="187" y="22" width="2058" height="1573"/></clipPath><clipPath id="clip1"><rect x="187" y="22" width="2058" height="1573"/></clipPath></defs><g clip-path="url(#clip0)" transform="translate(-187 -22)"><g clip-path="url(#clip1)"><rect x="609.5" y="645.5" width="155" height="320" stroke="#000000" stroke-width="3.4375" stroke-linecap="butt" stroke-linejoin="miter" stroke-miterlimit="8" stroke-opacity="1" fill="#8FAADC" fill-opacity="1"/><path d="M0 0 150 324" stroke="#000000" stroke-width="3.4375" stroke-linecap="butt" stroke-linejoin="round" stroke-miterlimit="10" stroke-opacity="1" fill="none" fill-rule="evenodd" transform="matrix(-1 0 0 1 762.5 639.5)"/><text fill="#000000" fill-opacity="1" font-family="Times New Roman,Times New Roman_MSFontService,sans-serif" font-style="normal" font-variant="normal" font-weight="400" font-stretch="normal" font-size="37" text-anchor="start" direction="ltr" writing-mode="lr-tb" unicode-bidi="normal" text-decoration="none" transform="matrix(1 0 0 1 669.167 694)">+</text><path d="M612.5 639.5 762.5 963.5" stroke="#000000" stroke-width="3.4375" stroke-linecap="butt" stroke-linejoin="round" stroke-miterlimit="10" stroke-opacity="1" fill="none" fill-rule="evenodd"/><path d="M701.5 680.029 701.047 675.65 699.799 671.444 697.758 667.526 695.036 664.126 691.691 661.361 687.892 659.229 683.753 657.961 679.557 657.5 675.191 657.961 671.108 659.229 667.309 661.361 663.964 664.126 661.242 667.526 659.201 671.444 657.954 675.65 657.5 680.029 657.954 684.408 659.201 688.672 661.242 692.532 663.964 695.932 667.309 698.755 671.108 700.772 675.191 702.097 679.557 702.5 683.753 702.097 687.892 700.772 691.691 698.755 695.036 695.932 697.758 692.532 699.799 688.672 701.047 684.408 701.5 680.029Z" stroke="#000000" stroke-width="0" stroke-linecap="butt" stroke-linejoin="round" stroke-miterlimit="10" stroke-opacity="1" fill="none" fill-rule="evenodd"/><text fill="#000000" fill-opacity="1" font-family="Times New Roman,Times New Roman_MSFontService,sans-serif" font-style="normal" font-variant="normal" font-weight="400" font-stretch="normal" font-size="55" text-anchor="start" direction="ltr" writing-mode="lr-tb" unicode-bidi="normal" text-decoration="none" transform="matrix(1 0 0 1 643.386 592)">C</text><text fill="#000000" fill-opacity="1" font-family="Times New Roman,Times New Roman_MSFontService,sans-serif" font-style="normal" font-variant="normal" font-weight="400" font-stretch="normal" font-size="55" text-anchor="start" direction="ltr" writing-mode="lr-tb" unicode-bidi="normal" text-decoration="none" transform="matrix(1 0 0 1 680.052 592)">C</text><path d="M763 791.844 854.219 791.844 854.219 802.157 763 802.156ZM849.063 781.532 880 797.001 849.062 812.469Z" fill="#000000" fill-rule="nonzero" fill-opacity="1"/><path d="M1324 376 1325 668" stroke="#008000" stroke-width="10.3125" stroke-linecap="butt" stroke-linejoin="round" stroke-miterlimit="10" stroke-opacity="1" fill="none" fill-rule="evenodd"/><path d="M1324 377 1342 395" stroke="#008000" stroke-width="10.3125" stroke-linecap="butt" stroke-linejoin="round" stroke-miterlimit="10" stroke-opacity="1" fill="none" fill-rule="evenodd"/><path d="M0 0 17.9999 18.0002" stroke="#008000" stroke-width="10.3125" stroke-linecap="butt" stroke-linejoin="round" stroke-miterlimit="10" stroke-opacity="1" fill="none" fill-rule="evenodd" transform="matrix(1 0 0 -1 1324 377)"/><path d="M1326 432 1343 450" stroke="#008000" stroke-width="10.3125" stroke-linecap="butt" stroke-linejoin="round" stroke-miterlimit="10" stroke-opacity="1" fill="none" fill-rule="evenodd"/><path d="M0 0 17.0002 18.0002" stroke="#008000" stroke-width="10.3125" stroke-linecap="butt" stroke-linejoin="round" stroke-miterlimit="10" stroke-opacity="1" fill="none" fill-rule="evenodd" transform="matrix(1 0 0 -1 1326 432)"/><path d="M1326 487 1343 505" stroke="#008000" stroke-width="10.3125" stroke-linecap="butt" stroke-linejoin="round" stroke-miterlimit="10" stroke-opacity="1" fill="none" fill-rule="evenodd"/><path d="M0 0 17.0002 18.0002" stroke="#008000" stroke-width="10.3125" stroke-linecap="butt" stroke-linejoin="round" stroke-miterlimit="10" stroke-opacity="1" fill="none" fill-rule="evenodd" transform="matrix(1 0 0 -1 1326 487)"/><path d="M1326 542 1343 560" stroke="#008000" stroke-width="10.3125" stroke-linecap="butt" stroke-linejoin="round" stroke-miterlimit="10" stroke-opacity="1" fill="none" fill-rule="evenodd"/><path d="M0 0 17.0002 18.0002" stroke="#008000" stroke-width="10.3125" stroke-linecap="butt" stroke-linejoin="round" stroke-miterlimit="10" stroke-opacity="1" fill="none" fill-rule="evenodd" transform="matrix(1 0 0 -1 1326 542)"/><rect x="1256.5" y="325.5" width="152" height="312" stroke="#000000" stroke-width="3.4375" stroke-linecap="butt" stroke-linejoin="miter" stroke-miterlimit="8" stroke-opacity="1" fill="none"/><path d="M5.15422-0.144516 7.43174 81.0843-2.87671 81.3733-5.15422 0.144516ZM17.5957 75.641 3.0001 107-13.3297 76.5081Z" fill="#4472C4" fill-rule="nonzero" fill-opacity="1" transform="matrix(1 0 0 -1 682 1067)"/><path d="M5.15625-2.86283e-05 5.15647 39.2191-5.15603 39.2191-5.15625 2.86283e-05ZM15.4689 34.0627 0.000360892 65.0003-15.4686 34.0629Z" fill="#009900" fill-rule="nonzero" fill-opacity="1" transform="matrix(1 0 0 -1 1328 742)"/><rect x="351.5" y="728.5" width="145" height="149" stroke="#000000" stroke-width="3.4375" stroke-linecap="butt" stroke-linejoin="miter" stroke-miterlimit="8" stroke-opacity="1" fill="#4472C4" fill-opacity="1"/><path d="M0 0 66 71.9998" stroke="#000000" stroke-width="10.3125" stroke-linecap="butt" stroke-linejoin="round" stroke-miterlimit="10" stroke-opacity="1" fill="none" fill-rule="evenodd" transform="matrix(-1 0 0 1 383 773)"/><path d="M335.5 807.5C335.5 798.664 342.663 791.5 351.5 791.5 360.337 791.5 367.5 798.664 367.5 807.5 367.5 816.337 360.337 823.5 351.5 823.5 342.663 823.5 335.5 816.337 335.5 807.5Z" stroke="#000000" stroke-width="3.4375" stroke-linecap="butt" stroke-linejoin="round" stroke-miterlimit="10" stroke-opacity="1" fill="#000000" fill-rule="evenodd" fill-opacity="1"/><path d="M0 0 66 71.9998" stroke="#000000" stroke-width="10.3125" stroke-linecap="butt" stroke-linejoin="round" stroke-miterlimit="10" stroke-opacity="1" fill="none" fill-rule="evenodd" transform="matrix(-1 0 0 1 465 697)"/><path d="M417.5 731.5C417.5 722.663 424.664 715.5 433.5 715.5 442.337 715.5 449.5 722.663 449.5 731.5 449.5 740.337 442.337 747.5 433.5 747.5 424.664 747.5 417.5 740.337 417.5 731.5Z" stroke="#000000" stroke-width="3.4375" stroke-linecap="butt" stroke-linejoin="round" stroke-miterlimit="10" stroke-opacity="1" fill="#000000" fill-rule="evenodd" fill-opacity="1"/><path d="M1142 475.844 1233.22 475.844 1233.22 486.156 1142 486.156ZM1228.06 465.531 1259 481 1228.06 496.469Z" fill="#000000" fill-rule="nonzero" fill-opacity="1"/><path d="M498 797.844 589.219 797.844 589.219 808.157 498 808.156ZM584.062 787.531 615 803 584.062 818.469Z" fill="#000000" fill-rule="nonzero" fill-opacity="1"/><path d="M1469.5 439C1469.5 422.155 1483.83 408.5 1501.5 408.5 1519.17 408.5 1533.5 422.155 1533.5 439 1533.5 455.845 1519.17 469.5 1501.5 469.5 1483.83 469.5 1469.5 455.845 1469.5 439Z" stroke="#000000" stroke-width="3.4375" stroke-linecap="butt" stroke-linejoin="round" stroke-miterlimit="10" stroke-dasharray="13.75 10.3125" stroke-opacity="1" fill="none" fill-rule="evenodd"/><text fill="#000000" fill-opacity="1" font-family="Times New Roman,Times New Roman_MSFontService,sans-serif" font-style="italic" font-variant="normal" font-weight="400" font-stretch="normal" font-size="46" text-anchor="start" direction="ltr" writing-mode="lr-tb" unicode-bidi="normal" text-decoration="none" transform="matrix(1 0 0 1 1479.27 448)">S</text><text fill="#000000" fill-opacity="1" font-family="Times New Roman,Times New Roman_MSFontService,sans-serif" font-style="italic" font-variant="normal" font-weight="400" font-stretch="normal" font-size="31" text-anchor="start" direction="ltr" writing-mode="lr-tb" unicode-bidi="normal" text-decoration="none" transform="matrix(1 0 0 1 1502.19 458)">1</text><path d="M7.07548e-06-5.15625 237.219-5.15592 237.219 5.15658-7.07548e-06 5.15625ZM232.062-15.4684 263 0.000360892 232.062 15.4691Z" fill="#000000" fill-rule="nonzero" fill-opacity="1" transform="matrix(1 0 0 -1 1408 484)"/><rect x="1668.5" y="306.5" width="423" height="368" stroke="#000000" stroke-width="3.4375" stroke-linecap="butt" stroke-linejoin="miter" stroke-miterlimit="8" stroke-opacity="1" fill="#4472C4" fill-opacity="1"/><path d="M1803.84 783 1803.84 639.781 1814.16 639.781 1814.16 783ZM1793.53 644.937 1809 614 1824.47 644.937Z" fill="#FF0000" fill-rule="nonzero" fill-opacity="1"/><path d="M5.15531-0.0986605 8.66178 183.125-1.64884 183.322-5.15531 0.0986605ZM18.8737 177.772 3.99977 209-12.0581 178.364Z" fill="#009900" fill-rule="nonzero" fill-opacity="1" transform="matrix(1 0 0 -1 1775 825)"/><path d="M2084 616.844 2185.22 616.844 2185.22 627.156 2084 627.156ZM2180.06 606.531 2211 622 2180.06 637.469Z" fill="#000000" fill-rule="nonzero" fill-opacity="1"/><path d="M2102.5 569.5C2102.5 552.931 2116.83 539.5 2134.5 539.5 2152.17 539.5 2166.5 552.931 2166.5 569.5 2166.5 586.068 2152.17 599.5 2134.5 599.5 2116.83 599.5 2102.5 586.068 2102.5 569.5Z" stroke="#000000" stroke-width="3.4375" stroke-linecap="butt" stroke-linejoin="round" stroke-miterlimit="10" stroke-dasharray="13.75 10.3125" stroke-opacity="1" fill="#FFFFFF" fill-rule="evenodd" fill-opacity="1"/><text fill="#000000" fill-opacity="1" font-family="Times New Roman,Times New Roman_MSFontService,sans-serif" font-style="italic" font-variant="normal" font-weight="400" font-stretch="normal" font-size="46" text-anchor="start" direction="ltr" writing-mode="lr-tb" unicode-bidi="normal" text-decoration="none" transform="matrix(1 0 0 1 2115.78 579)">I</text><text fill="#000000" fill-opacity="1" font-family="Times New Roman,Times New Roman_MSFontService,sans-serif" font-style="italic" font-variant="normal" font-weight="400" font-stretch="normal" font-size="31" text-anchor="start" direction="ltr" writing-mode="lr-tb" unicode-bidi="normal" text-decoration="none" transform="matrix(1 0 0 1 2131.25 589)">1</text><text fill="#000000" fill-opacity="1" font-family="Times New Roman,Times New Roman_MSFontService,sans-serif" font-style="normal" font-variant="normal" font-weight="400" font-stretch="normal" font-size="55" text-anchor="start" direction="ltr" writing-mode="lr-tb" unicode-bidi="normal" text-decoration="none" transform="matrix(1 0 0 1 1814.43 290)">TZ</text><text fill="#000000" fill-opacity="1" font-family="Times New Roman,Times New Roman_MSFontService,sans-serif" font-style="normal" font-variant="normal" font-weight="400" font-stretch="normal" font-size="37" text-anchor="start" direction="ltr" writing-mode="lr-tb" unicode-bidi="normal" text-decoration="none" transform="matrix(1 0 0 1 1882.03 303)">1</text><rect x="999.5" y="325.5" width="155" height="320" stroke="#000000" stroke-width="3.4375" stroke-linecap="butt" stroke-linejoin="miter" stroke-miterlimit="8" stroke-opacity="1" fill="#FF99CC" fill-opacity="1"/><path d="M0 0 149 323" stroke="#000000" stroke-width="3.4375" stroke-linecap="butt" stroke-linejoin="round" stroke-miterlimit="10" stroke-opacity="1" fill="none" fill-rule="evenodd" transform="matrix(-1 0 0 1 1152.5 320.5)"/><text fill="#000000" fill-opacity="1" font-family="Times New Roman,Times New Roman_MSFontService,sans-serif" font-style="normal" font-variant="normal" font-weight="400" font-stretch="normal" font-size="37" text-anchor="start" direction="ltr" writing-mode="lr-tb" unicode-bidi="normal" text-decoration="none" transform="matrix(1 0 0 1 1059.32 375)">+</text><path d="M1003.5 320.5 1152.5 643.5" stroke="#000000" stroke-width="3.4375" stroke-linecap="butt" stroke-linejoin="round" stroke-miterlimit="10" stroke-opacity="1" fill="none" fill-rule="evenodd"/><path d="M1091.5 360.029 1091.05 355.65 1089.8 351.444 1087.76 347.526 1085.04 344.126 1081.69 341.361 1077.89 339.229 1073.75 337.961 1069.56 337.5 1065.19 337.961 1061.11 339.229 1057.31 341.361 1053.96 344.126 1051.24 347.526 1049.2 351.444 1047.95 355.65 1047.5 360.029 1047.95 364.408 1049.2 368.672 1051.24 372.532 1053.96 375.932 1057.31 378.755 1061.11 380.772 1065.19 382.097 1069.56 382.5 1073.75 382.097 1077.89 380.772 1081.69 378.755 1085.04 375.932 1087.76 372.532 1089.8 368.672 1091.05 364.408 1091.5 360.029Z" stroke="#000000" stroke-width="0" stroke-linecap="butt" stroke-linejoin="round" stroke-miterlimit="10" stroke-opacity="1" fill="none" fill-rule="evenodd"/><text fill="#000000" fill-opacity="1" font-family="Times New Roman,Times New Roman_MSFontService,sans-serif" font-style="normal" font-variant="normal" font-weight="400" font-stretch="normal" font-size="55" text-anchor="start" direction="ltr" writing-mode="lr-tb" unicode-bidi="normal" text-decoration="none" transform="matrix(1 0 0 1 1033.59 287)">H</text><text fill="#000000" fill-opacity="1" font-family="Times New Roman,Times New Roman_MSFontService,sans-serif" font-style="normal" font-variant="normal" font-weight="400" font-stretch="normal" font-size="55" text-anchor="start" direction="ltr" writing-mode="lr-tb" unicode-bidi="normal" text-decoration="none" transform="matrix(1 0 0 1 1073.12 287)">C</text><text fill="#000000" fill-opacity="1" font-family="Times New Roman,Times New Roman_MSFontService,sans-serif" font-style="normal" font-variant="normal" font-weight="400" font-stretch="normal" font-size="37" text-anchor="start" direction="ltr" writing-mode="lr-tb" unicode-bidi="normal" text-decoration="none" transform="matrix(1 0 0 1 1109.79 300)">1</text><path d="M5.15625-1.80666e-05 5.15652 77.2185-5.15598 77.2185-5.15625 1.80666e-05ZM15.469 72.0622 0.000360892 103-15.4685 72.0623Z" fill="#FF0000" fill-rule="nonzero" fill-opacity="1" transform="matrix(1 0 0 -1 1072 744)"/><path d="M1468.5 1102C1468.5 1085.16 1482.83 1071.5 1500.5 1071.5 1518.17 1071.5 1532.5 1085.16 1532.5 1102 1532.5 1118.84 1518.17 1132.5 1500.5 1132.5 1482.83 1132.5 1468.5 1118.84 1468.5 1102Z" stroke="#000000" stroke-width="3.4375" stroke-linecap="butt" stroke-linejoin="round" stroke-miterlimit="10" stroke-dasharray="13.75 10.3125" stroke-opacity="1" fill="none" fill-rule="evenodd"/><text fill="#000000" fill-opacity="1" font-family="Times New Roman,Times New Roman_MSFontService,sans-serif" font-style="italic" font-variant="normal" font-weight="400" font-stretch="normal" font-size="46" text-anchor="start" direction="ltr" writing-mode="lr-tb" unicode-bidi="normal" text-decoration="none" transform="matrix(1 0 0 1 1478.7 1111)">S</text><text fill="#000000" fill-opacity="1" font-family="Times New Roman,Times New Roman_MSFontService,sans-serif" font-style="italic" font-variant="normal" font-weight="400" font-stretch="normal" font-size="31" text-anchor="start" direction="ltr" writing-mode="lr-tb" unicode-bidi="normal" text-decoration="none" transform="matrix(1 0 0 1 1501.61 1121)">2</text><path d="M7.07548e-06-5.15625 237.219-5.15592 237.219 5.15658-7.07548e-06 5.15625ZM232.062-15.4684 263 0.000360892 232.062 15.4691Z" fill="#000000" fill-rule="nonzero" fill-opacity="1" transform="matrix(1 0 0 -1 1407 1146)"/><rect x="1668.5" y="969.5" width="423" height="368" stroke="#000000" stroke-width="3.4375" stroke-linecap="butt" stroke-linejoin="miter" stroke-miterlimit="8" stroke-opacity="1" fill="#4472C4" fill-opacity="1"/><path d="M1803.84 1445 1803.84 1301.78 1814.16 1301.78 1814.16 1445ZM1793.53 1306.94 1809 1276 1824.47 1306.94Z" fill="#FF0000" fill-rule="nonzero" fill-opacity="1"/><path d="M5.15572-0.0739991 7.78546 183.147-2.52598 183.295-5.15572 0.0739991ZM18.0229 177.844 2.99974 209-12.9114 178.288Z" fill="#009900" fill-rule="nonzero" fill-opacity="1" transform="matrix(1 0 0 -1 1775 1488)"/><path d="M2084 1279.84 2185.22 1279.84 2185.22 1290.16 2084 1290.16ZM2180.06 1269.53 2211 1285 2180.06 1300.47Z" fill="#000000" fill-rule="nonzero" fill-opacity="1"/><path d="M2101.5 1232C2101.5 1215.16 2115.83 1201.5 2133.5 1201.5 2151.17 1201.5 2165.5 1215.16 2165.5 1232 2165.5 1248.84 2151.17 1262.5 2133.5 1262.5 2115.83 1262.5 2101.5 1248.84 2101.5 1232Z" stroke="#000000" stroke-width="3.4375" stroke-linecap="butt" stroke-linejoin="round" stroke-miterlimit="10" stroke-dasharray="13.75 10.3125" stroke-opacity="1" fill="#FFFFFF" fill-rule="evenodd" fill-opacity="1"/><text fill="#000000" fill-opacity="1" font-family="Times New Roman,Times New Roman_MSFontService,sans-serif" font-style="italic" font-variant="normal" font-weight="400" font-stretch="normal" font-size="46" text-anchor="start" direction="ltr" writing-mode="lr-tb" unicode-bidi="normal" text-decoration="none" transform="matrix(1 0 0 1 2115.21 1241)">I</text><text fill="#000000" fill-opacity="1" font-family="Times New Roman,Times New Roman_MSFontService,sans-serif" font-style="italic" font-variant="normal" font-weight="400" font-stretch="normal" font-size="31" text-anchor="start" direction="ltr" writing-mode="lr-tb" unicode-bidi="normal" text-decoration="none" transform="matrix(1 0 0 1 2130.68 1251)">2</text><text fill="#000000" fill-opacity="1" font-family="Times New Roman,Times New Roman_MSFontService,sans-serif" font-style="normal" font-variant="normal" font-weight="400" font-stretch="normal" font-size="55" text-anchor="start" direction="ltr" writing-mode="lr-tb" unicode-bidi="normal" text-decoration="none" transform="matrix(1 0 0 1 1813.85 952)">T</text><text fill="#000000" fill-opacity="1" font-family="Times New Roman,Times New Roman_MSFontService,sans-serif" font-style="normal" font-variant="normal" font-weight="400" font-stretch="normal" font-size="55" text-anchor="start" direction="ltr" writing-mode="lr-tb" unicode-bidi="normal" text-decoration="none" transform="matrix(1 0 0 1 1847.66 952)">Z</text><text fill="#000000" fill-opacity="1" font-family="Times New Roman,Times New Roman_MSFontService,sans-serif" font-style="normal" font-variant="normal" font-weight="400" font-stretch="normal" font-size="37" text-anchor="start" direction="ltr" writing-mode="lr-tb" unicode-bidi="normal" text-decoration="none" transform="matrix(1 0 0 1 1881.46 965)">2</text><rect x="999.5" y="988.5" width="154" height="320" stroke="#000000" stroke-width="3.4375" stroke-linecap="butt" stroke-linejoin="miter" stroke-miterlimit="8" stroke-opacity="1" fill="#FF99CC" fill-opacity="1"/><path d="M0 0 150 323" stroke="#000000" stroke-width="3.4375" stroke-linecap="butt" stroke-linejoin="round" stroke-miterlimit="10" stroke-opacity="1" fill="none" fill-rule="evenodd" transform="matrix(-1 0 0 1 1152.5 983.5)"/><text fill="#000000" fill-opacity="1" font-family="Times New Roman,Times New Roman_MSFontService,sans-serif" font-style="normal" font-variant="normal" font-weight="400" font-stretch="normal" font-size="37" text-anchor="start" direction="ltr" writing-mode="lr-tb" unicode-bidi="normal" text-decoration="none" transform="matrix(1 0 0 1 1058.75 1038)">+</text><path d="M1002.5 983.5 1152.5 1306.5" stroke="#000000" stroke-width="3.4375" stroke-linecap="butt" stroke-linejoin="round" stroke-miterlimit="10" stroke-opacity="1" fill="none" fill-rule="evenodd"/><path d="M1091.5 1023.03 1091.05 1018.65 1089.8 1014.44 1087.76 1010.53 1085.04 1007.13 1081.69 1004.36 1077.89 1002.23 1073.75 1000.96 1069.56 1000.5 1065.19 1000.96 1061.11 1002.23 1057.31 1004.36 1053.96 1007.13 1051.24 1010.53 1049.2 1014.44 1047.95 1018.65 1047.5 1023.03 1047.95 1027.41 1049.2 1031.67 1051.24 1035.53 1053.96 1038.93 1057.31 1041.75 1061.11 1043.77 1065.19 1045.1 1069.56 1045.5 1073.75 1045.1 1077.89 1043.77 1081.69 1041.75 1085.04 1038.93 1087.76 1035.53 1089.8 1031.67 1091.05 1027.41 1091.5 1023.03Z" stroke="#000000" stroke-width="0" stroke-linecap="butt" stroke-linejoin="round" stroke-miterlimit="10" stroke-opacity="1" fill="none" fill-rule="evenodd"/><text fill="#000000" fill-opacity="1" font-family="Times New Roman,Times New Roman_MSFontService,sans-serif" font-style="normal" font-variant="normal" font-weight="400" font-stretch="normal" font-size="55" text-anchor="start" direction="ltr" writing-mode="lr-tb" unicode-bidi="normal" text-decoration="none" transform="matrix(1 0 0 1 1030.09 953)">H</text><text fill="#000000" fill-opacity="1" font-family="Times New Roman,Times New Roman_MSFontService,sans-serif" font-style="normal" font-variant="normal" font-weight="400" font-stretch="normal" font-size="55" text-anchor="start" direction="ltr" writing-mode="lr-tb" unicode-bidi="normal" text-decoration="none" transform="matrix(1 0 0 1 1069.62 953)">C</text><text fill="#000000" fill-opacity="1" font-family="Times New Roman,Times New Roman_MSFontService,sans-serif" font-style="normal" font-variant="normal" font-weight="400" font-stretch="normal" font-size="37" text-anchor="start" direction="ltr" writing-mode="lr-tb" unicode-bidi="normal" text-decoration="none" transform="matrix(1 0 0 1 1106.28 966)">2</text><path d="M5.15625-1.78928e-05 5.15652 78.2185-5.15598 78.2186-5.15625 1.78928e-05ZM15.469 73.0622 0.000360892 104-15.4685 73.0624Z" fill="#FF0000" fill-rule="nonzero" fill-opacity="1" transform="matrix(1 0 0 -1 1071 1407)"/><path d="M2207 1282 2200 127" stroke="#000000" stroke-width="10.3125" stroke-linecap="butt" stroke-linejoin="round" stroke-miterlimit="10" stroke-opacity="1" fill="none" fill-rule="evenodd"/><path d="M2196 138.156 246.773 138.156 246.773 127.843 2196 127.844ZM251.937 148.468 221 133 251.937 117.531Z" fill="#000000" fill-rule="nonzero" fill-opacity="1"/><path d="M884 474.844 975.219 474.844 975.219 485.156 884 485.156ZM970.063 464.531 1001 480 970.062 495.469Z" fill="#000000" fill-rule="nonzero" fill-opacity="1"/><path d="M887 1144.84 978.219 1144.84 978.219 1155.16 887 1155.16ZM973.063 1134.53 1004 1150 973.063 1165.47Z" fill="#000000" fill-rule="nonzero" fill-opacity="1"/><path d="M885 474 885.001 1155" stroke="#000000" stroke-width="10.3125" stroke-linecap="butt" stroke-linejoin="round" stroke-miterlimit="10" stroke-opacity="1" fill="none" fill-rule="evenodd"/><path d="M438.156 127 438.157 692.219 427.844 692.219 427.844 127ZM448.469 687.063 433 718 417.532 687.063Z" fill="#000000" fill-rule="nonzero" fill-opacity="1"/><path d="M196 798.844 307.219 798.844 307.219 809.157 196 809.156ZM302.063 788.532 333 804 302.063 819.469Z" fill="#000000" fill-rule="nonzero" fill-opacity="1"/><path d="M221.5 749C221.5 732.155 235.603 718.5 253 718.5 270.397 718.5 284.5 732.155 284.5 749 284.5 765.845 270.397 779.5 253 779.5 235.603 779.5 221.5 765.845 221.5 749Z" stroke="#000000" stroke-width="3.4375" stroke-linecap="butt" stroke-linejoin="round" stroke-miterlimit="10" stroke-dasharray="13.75 10.3125" stroke-opacity="1" fill="none" fill-rule="evenodd"/><text fill="#000000" fill-opacity="1" font-family="Times New Roman,Times New Roman_MSFontService,sans-serif" font-style="italic" font-variant="normal" font-weight="400" font-stretch="normal" font-size="46" text-anchor="start" direction="ltr" writing-mode="lr-tb" unicode-bidi="normal" text-decoration="none" transform="matrix(1 0 0 1 237.761 762)">E</text><path d="M1319 1048 1320 1340" stroke="#008000" stroke-width="10.3125" stroke-linecap="butt" stroke-linejoin="round" stroke-miterlimit="10" stroke-opacity="1" fill="none" fill-rule="evenodd"/><path d="M1319 1049 1337 1067" stroke="#008000" stroke-width="10.3125" stroke-linecap="butt" stroke-linejoin="round" stroke-miterlimit="10" stroke-opacity="1" fill="none" fill-rule="evenodd"/><path d="M0 0 17.9999 18.0002" stroke="#008000" stroke-width="10.3125" stroke-linecap="butt" stroke-linejoin="round" stroke-miterlimit="10" stroke-opacity="1" fill="none" fill-rule="evenodd" transform="matrix(1 0 0 -1 1319 1049)"/><path d="M1321 1104 1338 1122" stroke="#008000" stroke-width="10.3125" stroke-linecap="butt" stroke-linejoin="round" stroke-miterlimit="10" stroke-opacity="1" fill="none" fill-rule="evenodd"/><path d="M0 0 16.9998 18.0002" stroke="#008000" stroke-width="10.3125" stroke-linecap="butt" stroke-linejoin="round" stroke-miterlimit="10" stroke-opacity="1" fill="none" fill-rule="evenodd" transform="matrix(1 0 0 -1 1321 1104)"/><path d="M1321 1159 1338 1177" stroke="#008000" stroke-width="10.3125" stroke-linecap="butt" stroke-linejoin="round" stroke-miterlimit="10" stroke-opacity="1" fill="none" fill-rule="evenodd"/><path d="M0 0 16.9998 18.0002" stroke="#008000" stroke-width="10.3125" stroke-linecap="butt" stroke-linejoin="round" stroke-miterlimit="10" stroke-opacity="1" fill="none" fill-rule="evenodd" transform="matrix(1 0 0 -1 1321 1159)"/><path d="M1321 1214 1338 1232" stroke="#008000" stroke-width="10.3125" stroke-linecap="butt" stroke-linejoin="round" stroke-miterlimit="10" stroke-opacity="1" fill="none" fill-rule="evenodd"/><path d="M0 0 16.9998 18.0002" stroke="#008000" stroke-width="10.3125" stroke-linecap="butt" stroke-linejoin="round" stroke-miterlimit="10" stroke-opacity="1" fill="none" fill-rule="evenodd" transform="matrix(1 0 0 -1 1321 1214)"/><rect x="1251.5" y="997.5" width="152" height="312" stroke="#000000" stroke-width="3.4375" stroke-linecap="butt" stroke-linejoin="miter" stroke-miterlimit="8" stroke-opacity="1" fill="none"/><path d="M5.15625-2.90758e-05 5.15647 38.2187-5.15603 38.2187-5.15625 2.90758e-05ZM15.4689 33.0623 0.000360892 63.9999-15.4686 33.0625Z" fill="#009900" fill-rule="nonzero" fill-opacity="1" transform="matrix(1 0 0 -1 1323 1414)"/><path d="M1.89883e-05-5.15625 72.2187-5.15598 72.2187 5.15652-1.89883e-05 5.15625ZM67.0625-15.4685 98 0.000360892 67.0624 15.469Z" fill="#000000" fill-rule="nonzero" fill-opacity="1" transform="matrix(1 0 0 -1 1152 1146)"/><path d="M1168.5 1076.5C1168.5 1059.93 1182.6 1046.5 1200 1046.5 1217.4 1046.5 1231.5 1059.93 1231.5 1076.5 1231.5 1093.07 1217.4 1106.5 1200 1106.5 1182.6 1106.5 1168.5 1093.07 1168.5 1076.5Z" stroke="#000000" stroke-width="3.4375" stroke-linecap="butt" stroke-linejoin="round" stroke-miterlimit="10" stroke-dasharray="13.75 10.3125" stroke-opacity="1" fill="none" fill-rule="evenodd"/><text fill="#000000" fill-opacity="1" font-family="Times New Roman,Times New Roman_MSFontService,sans-serif" font-style="italic" font-variant="normal" font-weight="400" font-stretch="normal" font-size="46" text-anchor="start" direction="ltr" writing-mode="lr-tb" unicode-bidi="normal" text-decoration="none" transform="matrix(1 0 0 1 1178.05 1086)">C</text><text fill="#000000" fill-opacity="1" font-family="Times New Roman,Times New Roman_MSFontService,sans-serif" font-style="italic" font-variant="normal" font-weight="400" font-stretch="normal" font-size="31" text-anchor="start" direction="ltr" writing-mode="lr-tb" unicode-bidi="normal" text-decoration="none" transform="matrix(1 0 0 1 1208.42 1096)">2</text><path d="M1171.5 429C1171.5 412.155 1185.6 398.5 1203 398.5 1220.4 398.5 1234.5 412.155 1234.5 429 1234.5 445.845 1220.4 459.5 1203 459.5 1185.6 459.5 1171.5 445.845 1171.5 429Z" stroke="#000000" stroke-width="3.4375" stroke-linecap="butt" stroke-linejoin="round" stroke-miterlimit="10" stroke-dasharray="13.75 10.3125" stroke-opacity="1" fill="none" fill-rule="evenodd"/><text fill="#000000" fill-opacity="1" font-family="Times New Roman,Times New Roman_MSFontService,sans-serif" font-style="italic" font-variant="normal" font-weight="400" font-stretch="normal" font-size="46" text-anchor="start" direction="ltr" writing-mode="lr-tb" unicode-bidi="normal" text-decoration="none" transform="matrix(1 0 0 1 1181.07 438)">C</text><text fill="#000000" fill-opacity="1" font-family="Times New Roman,Times New Roman_MSFontService,sans-serif" font-style="italic" font-variant="normal" font-weight="400" font-stretch="normal" font-size="31" text-anchor="start" direction="ltr" writing-mode="lr-tb" unicode-bidi="normal" text-decoration="none" transform="matrix(1 0 0 1 1211.43 448)">1</text><text fill="#000000" fill-opacity="1" font-family="Times New Roman,Times New Roman_MSFontService,sans-serif" font-style="normal" font-variant="normal" font-weight="400" font-stretch="normal" font-size="55" text-anchor="start" direction="ltr" writing-mode="lr-tb" unicode-bidi="normal" text-decoration="none" transform="matrix(1 0 0 1 1277.57 283)">VH</text><text fill="#000000" fill-opacity="1" font-family="Times New Roman,Times New Roman_MSFontService,sans-serif" font-style="normal" font-variant="normal" font-weight="400" font-stretch="normal" font-size="37" text-anchor="start" direction="ltr" writing-mode="lr-tb" unicode-bidi="normal" text-decoration="none" transform="matrix(1 0 0 1 1356.63 296)">1</text><text fill="#000000" fill-opacity="1" font-family="Times New Roman,Times New Roman_MSFontService,sans-serif" font-style="normal" font-variant="normal" font-weight="400" font-stretch="normal" font-size="55" text-anchor="start" direction="ltr" writing-mode="lr-tb" unicode-bidi="normal" text-decoration="none" transform="matrix(1 0 0 1 1267.99 966)">VH</text><text fill="#000000" fill-opacity="1" font-family="Times New Roman,Times New Roman_MSFontService,sans-serif" font-style="normal" font-variant="normal" font-weight="400" font-stretch="normal" font-size="37" text-anchor="start" direction="ltr" writing-mode="lr-tb" unicode-bidi="normal" text-decoration="none" transform="matrix(1 0 0 1 1347.05 979)">2</text><path d="M1208.5 78.5C1208.5 59.1701 1226.18 43.5002 1248 43.5002 1269.82 43.5002 1287.5 59.1701 1287.5 78.5 1287.5 97.8299 1269.82 113.5 1248 113.5 1226.18 113.5 1208.5 97.8299 1208.5 78.5Z" stroke="#000000" stroke-width="3.4375" stroke-linecap="butt" stroke-linejoin="round" stroke-miterlimit="10" stroke-dasharray="13.75 10.3125" stroke-opacity="1" fill="none" fill-rule="evenodd"/><text fill="#000000" fill-opacity="1" font-family="Times New Roman,Times New Roman_MSFontService,sans-serif" font-style="italic" font-variant="normal" font-weight="400" font-stretch="normal" font-size="46" text-anchor="start" direction="ltr" writing-mode="lr-tb" unicode-bidi="normal" text-decoration="none" transform="matrix(1 0 0 1 1221.01 82)">M</text><text fill="#000000" fill-opacity="1" font-family="Times New Roman,Times New Roman_MSFontService,sans-serif" font-style="italic" font-variant="normal" font-weight="400" font-stretch="normal" font-size="31" text-anchor="start" direction="ltr" writing-mode="lr-tb" unicode-bidi="normal" text-decoration="none" transform="matrix(1 0 0 1 1259.4 92)">1</text><path d="M508.5 748.5C508.5 729.17 525.961 713.5 547.5 713.5 569.039 713.5 586.5 729.17 586.5 748.5 586.5 767.83 569.039 783.5 547.5 783.5 525.961 783.5 508.5 767.83 508.5 748.5Z" stroke="#000000" stroke-width="3.4375" stroke-linecap="butt" stroke-linejoin="round" stroke-miterlimit="10" stroke-dasharray="13.75 10.3125" stroke-opacity="1" fill="none" fill-rule="evenodd"/><text fill="#000000" fill-opacity="1" font-family="Times New Roman,Times New Roman_MSFontService,sans-serif" font-style="italic" font-variant="normal" font-weight="400" font-stretch="normal" font-size="46" text-anchor="start" direction="ltr" writing-mode="lr-tb" unicode-bidi="normal" text-decoration="none" transform="matrix(1 0 0 1 520.335 753)">M</text><text fill="#000000" fill-opacity="1" font-family="Times New Roman,Times New Roman_MSFontService,sans-serif" font-style="italic" font-variant="normal" font-weight="400" font-stretch="normal" font-size="31" text-anchor="start" direction="ltr" writing-mode="lr-tb" unicode-bidi="normal" text-decoration="none" transform="matrix(1 0 0 1 558.72 763)">2</text><path d="M795.5 744.5C795.5 718.543 814.528 697.5 838 697.5 861.472 697.5 880.5 718.543 880.5 744.5 880.5 770.457 861.472 791.5 838 791.5 814.528 791.5 795.5 770.457 795.5 744.5Z" stroke="#000000" stroke-width="3.4375" stroke-linecap="butt" stroke-linejoin="round" stroke-miterlimit="10" stroke-dasharray="13.75 10.3125" stroke-opacity="1" fill="none" fill-rule="evenodd"/><text fill="#000000" fill-opacity="1" font-family="Times New Roman,Times New Roman_MSFontService,sans-serif" font-style="italic" font-variant="normal" font-weight="400" font-stretch="normal" font-size="46" text-anchor="start" direction="ltr" writing-mode="lr-tb" unicode-bidi="normal" text-decoration="none" transform="matrix(1 0 0 1 806.961 764)">CC</text><text fill="#000000" fill-opacity="1" font-family="Cambria Math,Cambria Math_MSFontService,sans-serif" font-style="normal" font-variant="normal" font-weight="400" font-stretch="normal" font-size="55" text-anchor="start" direction="ltr" writing-mode="lr-tb" unicode-bidi="normal" text-decoration="none" transform="matrix(1 0 0 1 1745.58 1558)">𝑄</text><path d="M-7.73437-31.0181C-8.59375-31.0181-9.30989-31.318-9.88281-31.9177-10.4557-32.5175-10.7422-33.2739-10.7422-34.187-10.7422-35.1001-10.4557-35.8565-9.88281-36.4563-9.30989-37.0561-8.59375-37.3559-7.73437-37.356-6.8929-37.3559-6.18571-37.0561-5.61279-36.4563-5.03988-35.8565-4.75342-35.1001-4.75342-34.187-4.75342-33.2739-5.03988-32.5175-5.61279-31.9177-6.18571-31.318-6.8929-31.0181-7.73437-31.0181Z" fill="#000000" fill-rule="nonzero" fill-opacity="1" transform="matrix(1 0 0 1 1776.4 1547)"/><text fill="#000000" fill-opacity="0" font-family="Arial,Arial_MSFontService,sans-serif" font-size="6.33789" direction="ltr" writing-mode="lr-tb" x="-10.7422" y="-31.8103">ሶ</text><text fill="#000000" fill-opacity="1" font-family="Cambria Math,Cambria Math_MSFontService,sans-serif" font-style="normal" font-variant="normal" font-weight="400" font-stretch="normal" font-size="40" text-anchor="start" direction="ltr" writing-mode="lr-tb" unicode-bidi="normal" text-decoration="none" transform="matrix(1 0 0 1 1781.08 1570)">𝑠</text><text fill="#000000" fill-opacity="1" font-family="Cambria Math,Cambria Math_MSFontService,sans-serif" font-style="normal" font-variant="normal" font-weight="400" font-stretch="normal" font-size="55" text-anchor="start" direction="ltr" writing-mode="lr-tb" unicode-bidi="normal" text-decoration="none" transform="matrix(1 0 0 1 1833.18 1507)">𝑄</text><path d="M-7.73437-31.0181C-8.59375-31.0181-9.30989-31.318-9.88281-31.9177-10.4557-32.5175-10.7422-33.2739-10.7422-34.187-10.7422-35.1001-10.4557-35.8565-9.88281-36.4563-9.30989-37.0561-8.59375-37.3559-7.73437-37.356-6.8929-37.3559-6.18571-37.0561-5.61279-36.4563-5.03988-35.8565-4.75342-35.1001-4.75342-34.187-4.75342-33.2739-5.03988-32.5175-5.61279-31.9177-6.18571-31.318-6.8929-31.0181-7.73437-31.0181Z" fill="#000000" fill-rule="nonzero" fill-opacity="1" transform="matrix(1 0 0 1 1864 1496)"/><text fill="#000000" fill-opacity="0" font-family="Arial,Arial_MSFontService,sans-serif" font-size="6.33789" direction="ltr" writing-mode="lr-tb" x="-10.7422" y="-31.8103">ሶ</text><text fill="#000000" fill-opacity="1" font-family="Cambria Math,Cambria Math_MSFontService,sans-serif" font-style="normal" font-variant="normal" font-weight="400" font-stretch="normal" font-size="40" text-anchor="start" direction="ltr" writing-mode="lr-tb" unicode-bidi="normal" text-decoration="none" transform="matrix(1 0 0 1 1868.68 1518)">𝑙</text><text fill="#000000" fill-opacity="1" font-family="Cambria Math,Cambria Math_MSFontService,sans-serif" font-style="normal" font-variant="normal" font-weight="400" font-stretch="normal" font-size="55" text-anchor="start" direction="ltr" writing-mode="lr-tb" unicode-bidi="normal" text-decoration="none" transform="matrix(1 0 0 1 1738.53 878)">𝑄</text><path d="M-7.73437-31.0181C-8.59375-31.0181-9.30989-31.318-9.88281-31.9177-10.4557-32.5175-10.7422-33.2739-10.7422-34.187-10.7422-35.1001-10.4557-35.8565-9.88281-36.4563-9.30989-37.0561-8.59375-37.3559-7.73437-37.356-6.8929-37.3559-6.18571-37.0561-5.61279-36.4563-5.03988-35.8565-4.75342-35.1001-4.75342-34.187-4.75342-33.2739-5.03988-32.5175-5.61279-31.9177-6.18571-31.318-6.8929-31.0181-7.73437-31.0181Z" fill="#000000" fill-rule="nonzero" fill-opacity="1" transform="matrix(1 0 0 1 1769.35 867)"/><text fill="#000000" fill-opacity="0" font-family="Arial,Arial_MSFontService,sans-serif" font-size="6.33789" direction="ltr" writing-mode="lr-tb" x="-10.7422" y="-31.8103">ሶ</text><text fill="#000000" fill-opacity="1" font-family="Cambria Math,Cambria Math_MSFontService,sans-serif" font-style="normal" font-variant="normal" font-weight="400" font-stretch="normal" font-size="40" text-anchor="start" direction="ltr" writing-mode="lr-tb" unicode-bidi="normal" text-decoration="none" transform="matrix(1 0 0 1 1774.03 889)">𝑠</text><text fill="#000000" fill-opacity="1" font-family="Cambria Math,Cambria Math_MSFontService,sans-serif" font-style="normal" font-variant="normal" font-weight="400" font-stretch="normal" font-size="55" text-anchor="start" direction="ltr" writing-mode="lr-tb" unicode-bidi="normal" text-decoration="none" transform="matrix(1 0 0 1 1826.13 826)">𝑄</text><path d="M-7.73437-31.0181C-8.59375-31.0181-9.30989-31.318-9.88281-31.9177-10.4557-32.5175-10.7422-33.2739-10.7422-34.187-10.7422-35.1001-10.4557-35.8565-9.88281-36.4563-9.30989-37.0561-8.59375-37.3559-7.73437-37.356-6.8929-37.3559-6.18571-37.0561-5.61279-36.4563-5.03988-35.8565-4.75342-35.1001-4.75342-34.187-4.75342-33.2739-5.03988-32.5175-5.61279-31.9177-6.18571-31.318-6.8929-31.0181-7.73437-31.0181Z" fill="#000000" fill-rule="nonzero" fill-opacity="1" transform="matrix(1 0 0 1 1856.96 816)"/><text fill="#000000" fill-opacity="0" font-family="Arial,Arial_MSFontService,sans-serif" font-size="6.33789" direction="ltr" writing-mode="lr-tb" x="-10.7422" y="-31.8103">ሶ</text><text fill="#000000" fill-opacity="1" font-family="Cambria Math,Cambria Math_MSFontService,sans-serif" font-style="normal" font-variant="normal" font-weight="400" font-stretch="normal" font-size="40" text-anchor="start" direction="ltr" writing-mode="lr-tb" unicode-bidi="normal" text-decoration="none" transform="matrix(1 0 0 1 1861.63 838)">𝑙</text><text fill="#000000" fill-opacity="1" font-family="Cambria Math,Cambria Math_MSFontService,sans-serif" font-style="normal" font-variant="normal" font-weight="400" font-stretch="normal" font-size="55" text-anchor="start" direction="ltr" writing-mode="lr-tb" unicode-bidi="normal" text-decoration="none" transform="matrix(1 0 0 1 664.041 1138)">𝑄</text><path d="M-7.73437-31.0181C-8.59375-31.0181-9.30989-31.318-9.88281-31.9177-10.4557-32.5175-10.7422-33.2739-10.7422-34.187-10.7422-35.1001-10.4557-35.8565-9.88281-36.4563-9.30989-37.0561-8.59375-37.3559-7.73437-37.356-6.8929-37.3559-6.18571-37.0561-5.61279-36.4563-5.03988-35.8565-4.75342-35.1001-4.75342-34.187-4.75342-33.2739-5.03988-32.5175-5.61279-31.9177-6.18571-31.318-6.8929-31.0181-7.73437-31.0181Z" fill="#000000" fill-rule="nonzero" fill-opacity="1" transform="matrix(1 0 0 1 694.863 1127)"/><text fill="#000000" fill-opacity="0" font-family="Arial,Arial_MSFontService,sans-serif" font-size="6.33789" direction="ltr" writing-mode="lr-tb" x="-10.7422" y="-31.8103">ሶ</text><text fill="#000000" fill-opacity="1" font-family="Cambria Math,Cambria Math_MSFontService,sans-serif" font-style="normal" font-variant="normal" font-weight="400" font-stretch="normal" font-size="40" text-anchor="start" direction="ltr" writing-mode="lr-tb" unicode-bidi="normal" text-decoration="none" transform="matrix(1 0 0 1 699.538 1149)">𝑡</text><text fill="#000000" fill-opacity="1" font-family="Cambria Math,Cambria Math_MSFontService,sans-serif" font-style="normal" font-variant="normal" font-weight="400" font-stretch="normal" font-size="55" text-anchor="start" direction="ltr" writing-mode="lr-tb" unicode-bidi="normal" text-decoration="none" transform="matrix(1 0 0 1 1333.27 788)">𝑚</text><path d="M-7.73437-31.0181C-8.59375-31.0181-9.30989-31.318-9.88281-31.9177-10.4557-32.5175-10.7422-33.2739-10.7422-34.187-10.7422-35.1001-10.4557-35.8565-9.88281-36.4563-9.30989-37.0561-8.59375-37.3559-7.73437-37.356-6.8929-37.3559-6.18571-37.0561-5.61279-36.4563-5.03988-35.8565-4.75342-35.1001-4.75342-34.187-4.75342-33.2739-5.03988-32.5175-5.61279-31.9177-6.18571-31.318-6.8929-31.0181-7.73437-31.0181Z" fill="#000000" fill-rule="nonzero" fill-opacity="1" transform="matrix(1 0 0 1 1366.78 788)"/><text fill="#000000" fill-opacity="0" font-family="Arial,Arial_MSFontService,sans-serif" font-size="6.33789" direction="ltr" writing-mode="lr-tb" x="-10.7422" y="-31.8103">ሶ</text><text fill="#000000" fill-opacity="1" font-family="Cambria Math,Cambria Math_MSFontService,sans-serif" font-style="normal" font-variant="normal" font-weight="400" font-stretch="normal" font-size="40" text-anchor="start" direction="ltr" writing-mode="lr-tb" unicode-bidi="normal" text-decoration="none" transform="matrix(1 0 0 1 1379.11 800)">𝑣</text><text fill="#000000" fill-opacity="1" font-family="Cambria Math,Cambria Math_MSFontService,sans-serif" font-style="normal" font-variant="normal" font-weight="400" font-stretch="normal" font-size="55" text-anchor="start" direction="ltr" writing-mode="lr-tb" unicode-bidi="normal" text-decoration="none" transform="matrix(1 0 0 1 1350.23 1428)">𝑚</text><path d="M-7.73437-31.0181C-8.59375-31.0181-9.30989-31.318-9.88281-31.9177-10.4557-32.5175-10.7422-33.2739-10.7422-34.187-10.7422-35.1001-10.4557-35.8565-9.88281-36.4563-9.30989-37.0561-8.59375-37.3559-7.73437-37.356-6.8929-37.3559-6.18571-37.0561-5.61279-36.4563-5.03988-35.8565-4.75342-35.1001-4.75342-34.187-4.75342-33.2739-5.03988-32.5175-5.61279-31.9177-6.18571-31.318-6.8929-31.0181-7.73437-31.0181Z" fill="#000000" fill-rule="nonzero" fill-opacity="1" transform="matrix(1 0 0 1 1383.73 1428)"/><text fill="#000000" fill-opacity="0" font-family="Arial,Arial_MSFontService,sans-serif" font-size="6.33789" direction="ltr" writing-mode="lr-tb" x="-10.7422" y="-31.8103">ሶ</text><text fill="#000000" fill-opacity="1" font-family="Cambria Math,Cambria Math_MSFontService,sans-serif" font-style="normal" font-variant="normal" font-weight="400" font-stretch="normal" font-size="40" text-anchor="start" direction="ltr" writing-mode="lr-tb" unicode-bidi="normal" text-decoration="none" transform="matrix(1 0 0 1 1396.06 1440)">𝑣</text><text fill="#000000" fill-opacity="1" font-family="Cambria Math,Cambria Math_MSFontService,sans-serif" font-style="normal" font-variant="normal" font-weight="400" font-stretch="normal" font-size="55" text-anchor="start" direction="ltr" writing-mode="lr-tb" unicode-bidi="normal" text-decoration="none" transform="matrix(1 0 0 1 1095.62 1407)">𝑄</text><path d="M-7.73437-31.0181C-8.59375-31.0181-9.30989-31.318-9.88281-31.9177-10.4557-32.5175-10.7422-33.2739-10.7422-34.187-10.7422-35.1001-10.4557-35.8565-9.88281-36.4563-9.30989-37.0561-8.59375-37.3559-7.73437-37.356-6.8929-37.3559-6.18571-37.0561-5.61279-36.4563-5.03988-35.8565-4.75342-35.1001-4.75342-34.187-4.75342-33.2739-5.03988-32.5175-5.61279-31.9177-6.18571-31.318-6.8929-31.0181-7.73437-31.0181Z" fill="#000000" fill-rule="nonzero" fill-opacity="1" transform="matrix(1 0 0 1 1126.45 1396)"/><text fill="#000000" fill-opacity="0" font-family="Arial,Arial_MSFontService,sans-serif" font-size="6.33789" direction="ltr" writing-mode="lr-tb" x="-10.7422" y="-31.8103">ሶ</text><text fill="#000000" fill-opacity="1" font-family="Cambria Math,Cambria Math_MSFontService,sans-serif" font-style="normal" font-variant="normal" font-weight="400" font-stretch="normal" font-size="40" text-anchor="start" direction="ltr" writing-mode="lr-tb" unicode-bidi="normal" text-decoration="none" transform="matrix(1 0 0 1 1131.12 1418)">𝑠</text><text fill="#000000" fill-opacity="1" font-family="Cambria Math,Cambria Math_MSFontService,sans-serif" font-style="normal" font-variant="normal" font-weight="400" font-stretch="normal" font-size="55" text-anchor="start" direction="ltr" writing-mode="lr-tb" unicode-bidi="normal" text-decoration="none" transform="matrix(1 0 0 1 1111.36 765)">𝑄</text><path d="M-7.73437-31.0181C-8.59375-31.0181-9.30989-31.318-9.88281-31.9177-10.4557-32.5175-10.7422-33.2739-10.7422-34.187-10.7422-35.1001-10.4557-35.8565-9.88281-36.4563-9.30989-37.0561-8.59375-37.3559-7.73437-37.356-6.8929-37.3559-6.18571-37.0561-5.61279-36.4563-5.03988-35.8565-4.75342-35.1001-4.75342-34.187-4.75342-33.2739-5.03988-32.5175-5.61279-31.9177-6.18571-31.318-6.8929-31.0181-7.73437-31.0181Z" fill="#000000" fill-rule="nonzero" fill-opacity="1" transform="matrix(1 0 0 1 1142.18 754)"/><text fill="#000000" fill-opacity="0" font-family="Arial,Arial_MSFontService,sans-serif" font-size="6.33789" direction="ltr" writing-mode="lr-tb" x="-10.7422" y="-31.8103">ሶ</text><text fill="#000000" fill-opacity="1" font-family="Cambria Math,Cambria Math_MSFontService,sans-serif" font-style="normal" font-variant="normal" font-weight="400" font-stretch="normal" font-size="40" text-anchor="start" direction="ltr" writing-mode="lr-tb" unicode-bidi="normal" text-decoration="none" transform="matrix(1 0 0 1 1146.86 776)">𝑠</text></g></g></svg>